<?xml version="1.0" encoding="UTF-8"?>
<svg id="Layer_1" xmlns="http://www.w3.org/2000/svg" version="1.1" viewBox="0 0 1366 768">
  <!-- Generator: Adobe Illustrator 29.5.1, SVG Export Plug-In . SVG Version: 2.1.0 Build 141)  -->
  <defs>
    <style>
      .st0 {
        fill: #fff;
      }
    </style>
  </defs>
  <g>
    <path class="st0" d="M151.2,1019.44c-6.92,4.37-12.84,11.2-17.76,20.49h-1.09l-2.73-23.77h-32.79v135.53h40.17v-78.69c3.64-9.29,8.24-15.75,13.8-19.4,5.55-3.64,10.88-5.47,15.98-5.47,2.91,0,5.46.18,7.65.55,2.19.37,4.55.91,7.1,1.64l6.56-34.7c-2.01-.91-4.24-1.59-6.69-2.05-2.46-.45-5.6-.68-9.43-.68-6.93,0-13.85,2.19-20.77,6.56Z"/>
    <path class="st0" d="M315.97,1087.89c.36-3,.55-6.33.55-9.97,0-9.29-1.19-17.9-3.55-25.82-2.37-7.92-5.97-14.8-10.79-20.63-4.83-5.83-10.84-10.38-18.03-13.66-7.2-3.28-15.62-4.92-25.28-4.92-8.2,0-16.12,1.64-23.77,4.92-7.65,3.28-14.44,7.97-20.36,14.07-5.92,6.11-10.7,13.57-14.35,22.41-3.65,8.84-5.46,18.72-5.46,29.65s1.73,21.31,5.19,30.06c3.46,8.74,8.29,16.17,14.48,22.27,6.19,6.11,13.48,10.75,21.86,13.94,8.38,3.18,17.4,4.78,27.05,4.78,8.2,0,16.53-1.37,25-4.1,8.47-2.73,16.16-6.46,23.09-11.2l-13.39-24.32c-9.84,6.01-19.58,9.02-29.24,9.02-9.11,0-16.81-2.32-23.09-6.97-6.28-4.65-10.34-12.16-12.16-22.54h81.15c.36-1.64.72-3.96,1.09-6.97ZM233.45,1069.99c1.46-9.11,4.6-15.8,9.43-20.08,4.82-4.28,10.43-6.42,16.8-6.42,8.2,0,14.03,2.46,17.49,7.38,3.46,4.92,5.19,11.3,5.19,19.13h-48.91Z"/>
    <path class="st0" d="M409.42,1045.4c6.19,0,12.48,2.64,18.85,7.92l18.31-24.87c-4.56-4.73-10.2-8.51-16.94-11.34-6.74-2.82-14.3-4.23-22.68-4.23-9.29,0-18.22,1.6-26.78,4.78-8.57,3.19-16.08,7.79-22.54,13.8-6.47,6.01-11.61,13.43-15.44,22.27-3.82,8.84-5.74,18.9-5.74,30.19s1.73,21.36,5.19,30.2c3.46,8.84,8.2,16.26,14.21,22.27,6.01,6.01,13.07,10.61,21.18,13.8,8.1,3.18,16.89,4.78,26.37,4.78,7.47,0,15.21-1.37,23.23-4.1,8.01-2.73,15.3-7.01,21.86-12.84l-16.12-25.41c-3.28,2.55-6.93,4.83-10.93,6.83-4.01,2.01-8.47,3-13.39,3-8.74,0-15.98-3.46-21.72-10.38-5.74-6.92-8.61-16.3-8.61-28.15s2.82-21.22,8.47-28.14c5.65-6.92,13.39-10.38,23.23-10.38Z"/>
    <path class="st0" d="M547.27,1017.67c-7.92-3.18-16.17-4.78-24.73-4.78s-16.85,1.6-24.87,4.78c-8.02,3.19-15.07,7.79-21.18,13.8-6.11,6.01-10.98,13.43-14.62,22.27-3.65,8.84-5.46,18.9-5.46,30.19s1.82,21.36,5.46,30.2c3.64,8.84,8.51,16.26,14.62,22.27,6.1,6.01,13.16,10.61,21.18,13.8,8.01,3.18,16.3,4.78,24.87,4.78s16.8-1.6,24.73-4.78c7.92-3.19,14.93-7.79,21.04-13.8,6.1-6.01,10.97-13.43,14.62-22.27,3.64-8.83,5.46-18.9,5.46-30.2s-1.82-21.36-5.46-30.19c-3.65-8.83-8.52-16.26-14.62-22.27-6.11-6.01-13.11-10.61-21.04-13.8ZM541.12,1112.07c-4.19,6.93-10.38,10.38-18.58,10.38s-14.62-3.46-18.72-10.38c-4.1-6.92-6.15-16.3-6.15-28.15s2.05-21.22,6.15-28.14c4.1-6.92,10.34-10.38,18.72-10.38s14.39,3.46,18.58,10.38c4.19,6.93,6.29,16.3,6.29,28.14s-2.1,21.22-6.29,28.15Z"/>
    <path class="st0" d="M738.13,1151.69v-84.16c0-17.12-3.33-30.51-9.97-40.17-6.65-9.65-17.35-14.48-32.11-14.48-9.29,0-17.4,2.05-24.32,6.15-6.93,4.1-13.3,8.88-19.13,14.35h-1.09l-2.73-17.21h-32.79v135.53h40.17v-91.54c4.37-4.19,8.38-7.42,12.02-9.7,3.64-2.28,8.01-3.42,13.12-3.42,5.83,0,10.06,1.82,12.7,5.46,2.64,3.65,3.96,10.38,3.96,20.22v78.97h40.17Z"/>
    <path class="st0" d="M876.25,1031.47c-6.11-6.01-13.11-10.61-21.04-13.8-7.92-3.18-16.17-4.78-24.73-4.78s-16.85,1.6-24.87,4.78c-8.02,3.19-15.07,7.79-21.18,13.8-6.11,6.01-10.98,13.43-14.62,22.27-3.65,8.84-5.46,18.9-5.46,30.19s1.82,21.36,5.46,30.2c3.64,8.84,8.51,16.26,14.62,22.27,6.1,6.01,13.16,10.61,21.18,13.8,8.01,3.18,16.3,4.78,24.87,4.78s16.8-1.6,24.73-4.78c7.92-3.19,14.93-7.79,21.04-13.8,6.1-6.01,10.97-13.43,14.62-22.27,3.64-8.83,5.46-18.9,5.46-30.2s-1.82-21.36-5.46-30.19c-3.65-8.83-8.52-16.26-14.62-22.27ZM849.06,1112.07c-4.19,6.93-10.38,10.38-18.58,10.38s-14.62-3.46-18.72-10.38c-4.1-6.92-6.15-16.3-6.15-28.15s2.05-21.22,6.15-28.14c4.1-6.92,10.34-10.38,18.72-10.38s14.39,3.46,18.58,10.38c4.19,6.93,6.29,16.3,6.29,28.14s-2.1,21.22-6.29,28.15Z"/>
    <path class="st0" d="M978.76,1124.17c-3.21,2.43-8.1,3.64-14.65,3.64-5.85,0-11.77-1.35-17.76-4.06-5.99-2.71-11.48-6.2-16.47-10.48l-18.18,21.61c7.27,6.71,15.44,11.73,24.5,15.08,9.06,3.35,18.15,5.03,27.28,5.03,8.27,0,15.65-1.18,22.14-3.53,6.49-2.35,11.98-5.49,16.47-9.41,4.49-3.92,7.91-8.48,10.27-13.69,2.35-5.2,3.53-10.73,3.53-16.58,0-9.84-2.46-17.76-7.38-23.75-4.92-5.99-11.66-10.7-20.22-14.12l-17.76-7.27c-2.99-1.28-5.81-2.46-8.45-3.53-2.64-1.07-4.92-2.21-6.85-3.42-1.93-1.21-3.42-2.57-4.49-4.06-1.07-1.5-1.6-3.32-1.6-5.46,0-3.99,1.6-7.09,4.81-9.31,3.21-2.21,7.52-3.32,12.94-3.32s10.66.96,15.3,2.89c4.63,1.93,9.23,4.67,13.8,8.24l15.83-19.89c-5.99-5.99-12.94-10.55-20.86-13.69-7.91-3.14-15.94-4.71-24.07-4.71-7.27,0-13.94,1.07-20,3.21-6.06,2.14-11.27,5.1-15.62,8.88-4.35,3.78-7.77,8.2-10.27,13.26-2.5,5.06-3.74,10.45-3.74,16.15,0,5.13.78,9.73,2.35,13.8,1.57,4.06,3.67,7.63,6.31,10.7,2.64,3.07,5.63,5.74,8.99,8.02,3.35,2.28,6.88,4.14,10.59,5.56l17.97,7.7c2.99,1.28,5.74,2.46,8.24,3.53,2.49,1.07,4.63,2.21,6.42,3.42,1.78,1.21,3.13,2.61,4.06,4.17.93,1.57,1.39,3.42,1.39,5.56,0,4.14-1.6,7.42-4.81,9.84Z"/>
    <polygon class="st0" points="1126.69 1039.45 1126.69 1012.92 1039.19 1012.92 1039.19 1152.41 1128.83 1152.41 1128.83 1125.88 1070.85 1125.88 1070.85 1093.79 1118.35 1093.79 1118.35 1067.48 1070.85 1067.48 1070.85 1039.45 1126.69 1039.45"/>
    <path class="st0" d="M1253.33,1081.7c4.56-6.63,6.85-15.08,6.85-25.35,0-8.27-1.43-15.19-4.28-20.75-2.86-5.56-6.74-10.02-11.66-13.37-4.92-3.35-10.63-5.74-17.11-7.17-6.49-1.42-13.44-2.14-20.86-2.14h-50.27v139.48h31.66v-50.27h17.11l26.74,50.27h35.3l-31.45-55.84c7.41-3.28,13.4-8.24,17.97-14.87ZM1222.63,1071.86c-4.35,3.5-10.66,5.24-18.93,5.24h-16.04v-39.15h16.04c8.27,0,14.58,1.36,18.93,4.06,4.35,2.71,6.52,7.49,6.52,14.33s-2.18,12.02-6.52,15.51Z"/>
    <path class="st0" d="M951.58,1199.77c-1.84-1.07-7.23-20.46-8.8-23.84-1.03.07-1.13,1.12-1.48,1.8-1.59,3.11-7.57,21.91-9.14,22.39h-25.29c5.71,6.64,13.64,11.02,19.68,17.38.47,2.02-5.96,18.46-6.68,22.4-.18.96-.93.95.56,1.99l21.25-13.68,20.89,14.42-5.89-25.14c.27-1.13,16.29-11.85,18.61-13.83.76-.65,1.54-.71,1.22-2.08l-24.93-1.83Z"/>
    <path class="st0" d="M1263.12,1217.46l20.58-15.87-26.32-1.55-8.5-24.12-9.16,24.19h-25.66c-.27,1.23.39,1.48,1.11,2.19,2.36,2.3,18.33,13.84,18.46,15.02l-7.1,24.58,21.62-13.69,21.26,14.43-1.76-7.16c-1.58-5.98-2.71-12.11-4.52-18.03Z"/>
    <path class="st0" d="M1181.03,1199.79l-8.04-23.86c-.87.08-1.25,1-1.61,1.68-1.57,2.96-7.57,22.04-9.02,22.51h-25.29c-.37,1.46.61,1.42,1.24,2.06,2.53,2.59,18.05,13.49,18.39,15.26l-7.16,24.47,22.37-13.76,20.51,14.5c.91-5.63-6.72-20.79-5.37-25.16.38-1.24,16.24-12.3,18.74-14.23.61-.47,1.34.01.92-1.68l-25.69-1.8Z"/>
    <path class="st0" d="M1027.82,1199.77l-8.06-23.84c-1.91-.34-1.13.27-1.53,1.04-1.52,2.97-7.91,22.77-9.1,23.15h-25.29c.17,1.37,2.48,3.53,3.5,4.4,2.13,1.83,15.88,11.45,16.17,12.92l-7.2,24.47,21.63-13.69,21.25,14.43-6.08-24.47c.34-1.8,15.84-11.91,18.41-14.53.63-.64,1.61-.61,1.23-2.06l-24.94-1.82Z"/>
    <path class="st0" d="M1114.08,1214.18c5.3-4.24,11.29-7.7,16.38-12.23l-26.31-1.9-8.14-24.12c-1.04.02-1.44,2.08-1.8,2.95-1.2,2.94-7.26,20.75-8.82,21.24h-25.29l19.83,16.65c.68,2.89-5.72,18.93-6.76,23.2-.15.61-.95,1.89.49,1.92,1.39.03,19.91-13.84,21.27-13.73,2.99,1.27,19.27,14.5,20.52,14.47,1.37-.04.65-1.4.55-1.98-.57-3.26-6.79-22.54-5.99-23.6,2.5-.05,2.69-1.76,4.07-2.87Z"/>
    <path class="st0" d="M44.03,961.41v255.54h842.98c-.34-4.22-.34-8.45,1.04-16.9H60.93v-221.75h1239.67v221.75h-1.38l-15.51,12.67,7.3,4.22h26.49v-255.54H44.03Z"/>
  </g>
  <g>
    <path class="st0" d="M151.2,265.62c-6.92,4.37-12.84,11.2-17.76,20.49h-1.09l-2.73-23.77h-32.79v135.53h40.17v-78.69c3.64-9.29,8.24-15.75,13.8-19.4,5.55-3.64,10.88-5.47,15.98-5.47,2.91,0,5.46.18,7.65.55,2.19.37,4.55.91,7.1,1.64l6.56-34.7c-2.01-.91-4.24-1.59-6.69-2.05-2.46-.45-5.6-.68-9.43-.68-6.93,0-13.85,2.19-20.77,6.56Z"/>
    <path class="st0" d="M315.97,334.07c.36-3,.55-6.33.55-9.97,0-9.29-1.19-17.9-3.55-25.82-2.37-7.92-5.97-14.8-10.79-20.63-4.83-5.83-10.84-10.38-18.03-13.66-7.2-3.28-15.62-4.92-25.28-4.92-8.2,0-16.12,1.64-23.77,4.92-7.65,3.28-14.44,7.97-20.36,14.07-5.92,6.11-10.7,13.57-14.35,22.41-3.65,8.84-5.46,18.72-5.46,29.65s1.73,21.31,5.19,30.06c3.46,8.74,8.29,16.17,14.48,22.27,6.19,6.11,13.48,10.75,21.86,13.94,8.38,3.18,17.4,4.78,27.05,4.78,8.2,0,16.53-1.37,25-4.1,8.47-2.73,16.16-6.46,23.09-11.2l-13.39-24.32c-9.84,6.01-19.58,9.02-29.24,9.02-9.11,0-16.81-2.32-23.09-6.97-6.28-4.65-10.34-12.16-12.16-22.54h81.15c.36-1.64.72-3.96,1.09-6.97ZM233.45,316.17c1.46-9.11,4.6-15.8,9.43-20.08,4.82-4.28,10.43-6.42,16.8-6.42,8.2,0,14.03,2.46,17.49,7.38,3.46,4.92,5.19,11.3,5.19,19.13h-48.91Z"/>
    <path class="st0" d="M409.42,291.58c6.19,0,12.48,2.64,18.85,7.92l18.31-24.87c-4.56-4.73-10.2-8.51-16.94-11.34-6.74-2.82-14.3-4.23-22.68-4.23-9.29,0-18.22,1.6-26.78,4.78-8.57,3.19-16.08,7.79-22.54,13.8-6.47,6.01-11.61,13.43-15.44,22.27-3.82,8.84-5.74,18.9-5.74,30.19s1.73,21.36,5.19,30.2c3.46,8.84,8.2,16.26,14.21,22.27,6.01,6.01,13.07,10.61,21.18,13.8,8.1,3.18,16.89,4.78,26.37,4.78,7.47,0,15.21-1.37,23.23-4.1,8.01-2.73,15.3-7.01,21.86-12.84l-16.12-25.41c-3.28,2.55-6.93,4.83-10.93,6.83-4.01,2.01-8.47,3-13.39,3-8.74,0-15.98-3.46-21.72-10.38-5.74-6.92-8.61-16.3-8.61-28.15s2.82-21.22,8.47-28.14c5.65-6.92,13.39-10.38,23.23-10.38Z"/>
    <path class="st0" d="M547.27,263.85c-7.92-3.18-16.17-4.78-24.73-4.78s-16.85,1.6-24.87,4.78c-8.02,3.19-15.07,7.79-21.18,13.8-6.11,6.01-10.98,13.43-14.62,22.27-3.65,8.84-5.46,18.9-5.46,30.19s1.82,21.36,5.46,30.2c3.64,8.84,8.51,16.26,14.62,22.27,6.1,6.01,13.16,10.61,21.18,13.8,8.01,3.18,16.3,4.78,24.87,4.78s16.8-1.6,24.73-4.78c7.92-3.19,14.93-7.79,21.04-13.8,6.1-6.01,10.97-13.43,14.62-22.27,3.64-8.83,5.46-18.9,5.46-30.2s-1.82-21.36-5.46-30.19c-3.65-8.83-8.52-16.26-14.62-22.27-6.11-6.01-13.11-10.61-21.04-13.8ZM541.12,358.25c-4.19,6.93-10.38,10.38-18.58,10.38s-14.62-3.46-18.72-10.38c-4.1-6.92-6.15-16.3-6.15-28.15s2.05-21.22,6.15-28.14c4.1-6.92,10.34-10.38,18.72-10.38s14.39,3.46,18.58,10.38c4.19,6.93,6.29,16.3,6.29,28.14s-2.1,21.22-6.29,28.15Z"/>
    <path class="st0" d="M738.13,397.87v-84.16c0-17.12-3.33-30.51-9.97-40.17-6.65-9.65-17.35-14.48-32.11-14.48-9.29,0-17.4,2.05-24.32,6.15-6.93,4.1-13.3,8.88-19.13,14.35h-1.09l-2.73-17.21h-32.79v135.53h40.17v-91.54c4.37-4.19,8.38-7.42,12.02-9.7,3.64-2.28,8.01-3.42,13.12-3.42,5.83,0,10.06,1.82,12.7,5.46,2.64,3.65,3.96,10.38,3.96,20.22v78.97h40.17Z"/>
    <path class="st0" d="M876.25,277.64c-6.11-6.01-13.11-10.61-21.04-13.8-7.92-3.18-16.17-4.78-24.73-4.78s-16.85,1.6-24.87,4.78c-8.02,3.19-15.07,7.79-21.18,13.8-6.11,6.01-10.98,13.43-14.62,22.27-3.65,8.84-5.46,18.9-5.46,30.19s1.82,21.36,5.46,30.2c3.64,8.84,8.51,16.26,14.62,22.27,6.1,6.01,13.16,10.61,21.18,13.8,8.01,3.18,16.3,4.78,24.87,4.78s16.8-1.6,24.73-4.78c7.92-3.19,14.93-7.79,21.04-13.8,6.1-6.01,10.97-13.43,14.62-22.27,3.64-8.83,5.46-18.9,5.46-30.2s-1.82-21.36-5.46-30.19c-3.65-8.83-8.52-16.26-14.62-22.27ZM849.06,358.25c-4.19,6.93-10.38,10.38-18.58,10.38s-14.62-3.46-18.72-10.38c-4.1-6.92-6.15-16.3-6.15-28.15s2.05-21.22,6.15-28.14c4.1-6.92,10.34-10.38,18.72-10.38s14.39,3.46,18.58,10.38c4.19,6.93,6.29,16.3,6.29,28.14s-2.1,21.22-6.29,28.15Z"/>
    <path class="st0" d="M978.76,370.35c-3.21,2.43-8.1,3.64-14.65,3.64-5.85,0-11.77-1.35-17.76-4.06-5.99-2.71-11.48-6.2-16.47-10.48l-18.18,21.61c7.27,6.71,15.44,11.73,24.5,15.08,9.06,3.35,18.15,5.03,27.28,5.03,8.27,0,15.65-1.18,22.14-3.53,6.49-2.35,11.98-5.49,16.47-9.41,4.49-3.92,7.91-8.48,10.27-13.69,2.35-5.2,3.53-10.73,3.53-16.58,0-9.84-2.46-17.76-7.38-23.75-4.92-5.99-11.66-10.7-20.22-14.12l-17.76-7.27c-2.99-1.28-5.81-2.46-8.45-3.53-2.64-1.07-4.92-2.21-6.85-3.42-1.93-1.21-3.42-2.57-4.49-4.06-1.07-1.5-1.6-3.32-1.6-5.46,0-3.99,1.6-7.09,4.81-9.31,3.21-2.21,7.52-3.32,12.94-3.32s10.66.96,15.3,2.89c4.63,1.93,9.23,4.67,13.8,8.24l15.83-19.89c-5.99-5.99-12.94-10.55-20.86-13.69-7.91-3.14-15.94-4.71-24.07-4.71-7.27,0-13.94,1.07-20,3.21-6.06,2.14-11.27,5.1-15.62,8.88-4.35,3.78-7.77,8.2-10.27,13.26-2.5,5.06-3.74,10.45-3.74,16.15,0,5.13.78,9.73,2.35,13.8,1.57,4.06,3.67,7.63,6.31,10.7,2.64,3.07,5.63,5.74,8.99,8.02,3.35,2.28,6.88,4.14,10.59,5.56l17.97,7.7c2.99,1.28,5.74,2.46,8.24,3.53,2.49,1.07,4.63,2.21,6.42,3.42,1.78,1.21,3.13,2.61,4.06,4.17.93,1.57,1.39,3.42,1.39,5.56,0,4.14-1.6,7.42-4.81,9.84Z"/>
    <polygon class="st0" points="1126.69 285.63 1126.69 259.1 1039.19 259.1 1039.19 398.58 1128.83 398.58 1128.83 372.06 1070.85 372.06 1070.85 339.97 1118.35 339.97 1118.35 313.65 1070.85 313.65 1070.85 285.63 1126.69 285.63"/>
    <path class="st0" d="M1253.33,327.88c4.56-6.63,6.85-15.08,6.85-25.35,0-8.27-1.43-15.19-4.28-20.75-2.86-5.56-6.74-10.02-11.66-13.37-4.92-3.35-10.63-5.74-17.11-7.17-6.49-1.42-13.44-2.14-20.86-2.14h-50.27v139.48h31.66v-50.27h17.11l26.74,50.27h35.3l-31.45-55.84c7.41-3.28,13.4-8.24,17.97-14.87ZM1222.63,318.04c-4.35,3.5-10.66,5.24-18.93,5.24h-16.04v-39.15h16.04c8.27,0,14.58,1.36,18.93,4.06,4.35,2.71,6.52,7.49,6.52,14.33s-2.18,12.02-6.52,15.51Z"/>
    <path class="st0" d="M951.58,445.94c-1.84-1.07-7.23-20.46-8.8-23.84-1.03.07-1.13,1.12-1.48,1.8-1.59,3.11-7.57,21.91-9.14,22.39h-25.29c5.71,6.64,13.64,11.02,19.68,17.38.47,2.02-5.96,18.46-6.68,22.4-.18.96-.93.95.56,1.99l21.25-13.68,20.89,14.42-5.89-25.14c.27-1.13,16.29-11.85,18.61-13.83.76-.65,1.54-.71,1.22-2.08l-24.93-1.83Z"/>
    <path class="st0" d="M1263.12,463.64l20.58-15.87-26.32-1.55-8.5-24.12-9.16,24.19h-25.66c-.27,1.23.39,1.48,1.11,2.19,2.36,2.3,18.33,13.84,18.46,15.02l-7.1,24.58,21.62-13.69,21.26,14.43-1.76-7.16c-1.58-5.98-2.71-12.11-4.52-18.03Z"/>
    <path class="st0" d="M1181.03,445.97l-8.04-23.86c-.87.08-1.25,1-1.61,1.68-1.57,2.96-7.57,22.04-9.02,22.51h-25.29c-.37,1.46.61,1.42,1.24,2.06,2.53,2.59,18.05,13.49,18.39,15.26l-7.16,24.47,22.37-13.76,20.51,14.5c.91-5.63-6.72-20.79-5.37-25.16.38-1.24,16.24-12.3,18.74-14.23.61-.47,1.34.01.92-1.68l-25.69-1.8Z"/>
    <path class="st0" d="M1027.82,445.95l-8.06-23.84c-1.91-.34-1.13.27-1.53,1.04-1.52,2.97-7.91,22.77-9.1,23.15h-25.29c.17,1.37,2.48,3.53,3.5,4.4,2.13,1.83,15.88,11.45,16.17,12.92l-7.2,24.47,21.63-13.69,21.25,14.43-6.08-24.47c.34-1.8,15.84-11.91,18.41-14.53.63-.64,1.61-.61,1.23-2.06l-24.94-1.82Z"/>
    <path class="st0" d="M1114.08,460.36c5.3-4.24,11.29-7.7,16.38-12.23l-26.31-1.9-8.14-24.12c-1.04.02-1.44,2.08-1.8,2.95-1.2,2.94-7.26,20.75-8.82,21.24h-25.29l19.83,16.65c.68,2.89-5.72,18.93-6.76,23.2-.15.61-.95,1.89.49,1.92,1.39.03,19.91-13.84,21.27-13.73,2.99,1.27,19.27,14.5,20.52,14.47,1.37-.04.65-1.4.55-1.98-.57-3.26-6.79-22.54-5.99-23.6,2.5-.05,2.69-1.76,4.07-2.87Z"/>
    <path class="st0" d="M44.03,207.58v255.54h842.98c-.34-4.22-.34-8.45,1.04-16.9H60.93v-221.75h1239.67v221.75h-1.38l-15.51,12.67,7.3,4.22h26.49v-255.54H44.03Z"/>
  </g>
</svg>