<?xml version="1.0" standalone="no"?>
<!DOCTYPE svg PUBLIC "-//W3C//DTD SVG 20010904//EN"
 "http://www.w3.org/TR/2001/REC-SVG-20010904/DTD/svg10.dtd">
<svg version="1.0" xmlns="http://www.w3.org/2000/svg"
 width="512.000000pt" height="512.000000pt" viewBox="0 0 512.000000 512.000000"
 preserveAspectRatio="xMidYMid meet">
<metadata>
Created by potrace 1.16, written by Peter Selinger 2001-2019
</metadata>
<g transform="translate(0.000000,512.000000) scale(0.100000,-0.100000)"
fill="#000000" stroke="none">
<path d="M2497 4938 c-14 -13 -168 -183 -343 -378 -175 -195 -335 -374 -356
-397 -31 -34 -38 -50 -38 -83 0 -27 7 -47 20 -60 19 -19 33 -20 200 -20 l180
0 0 -200 0 -200 80 0 80 0 0 255 0 256 -25 24 c-23 24 -30 25 -145 25 -66 0
-120 2 -120 5 0 9 522 585 530 585 8 0 530 -576 530 -585 0 -3 -54 -5 -120 -5
-115 0 -122 -1 -145 -25 l-25 -24 0 -256 0 -255 80 0 80 0 0 200 0 200 180 0
c167 0 181 1 200 20 13 13 20 33 20 60 0 33 -7 49 -38 83 -21 23 -181 202
-356 397 -175 195 -329 365 -343 378 -16 15 -37 22 -63 22 -26 0 -47 -7 -63
-22z"/>
<path d="M698 3728 c-479 -430 -512 -460 -526 -476 -18 -23 -15 -87 5 -110 10
-11 110 -102 223 -203 113 -101 294 -264 403 -362 186 -167 199 -177 237 -177
27 0 47 7 60 20 19 19 20 33 20 200 l0 180 114 0 c192 0 206 -14 206 -205 l0
-115 40 0 c38 0 40 -2 40 -30 0 -68 71 -168 136 -192 19 -6 34 -16 34 -20 0
-5 -20 -89 -45 -188 -25 -99 -45 -194 -45 -212 0 -25 22 -66 86 -163 93 -141
106 -155 140 -155 25 0 22 9 65 -210 l23 -114 -19 -431 c-25 -587 -25 -563 4
-586 21 -17 41 -19 238 -19 118 0 222 4 231 9 9 5 55 86 102 180 46 94 87 171
90 171 3 0 44 -77 90 -171 47 -94 93 -175 102 -180 9 -5 113 -9 231 -9 197 0
217 2 238 19 29 23 29 -1 4 586 l-19 431 23 114 c42 213 41 210 61 210 10 0
26 3 35 6 24 10 195 357 195 396 0 18 -18 96 -40 173 -22 76 -40 142 -40 146
0 4 13 12 30 19 62 26 130 125 130 190 0 28 2 30 40 30 l40 0 0 114 c0 192 14
206 205 206 l115 0 0 -180 c0 -167 1 -181 20 -200 13 -13 33 -20 60 -20 33 0
49 7 83 38 23 21 202 181 397 356 195 175 365 329 378 343 30 33 30 93 0 126
-13 14 -183 168 -378 343 -195 175 -374 335 -397 356 -34 31 -50 38 -83 38
-27 0 -47 -7 -60 -20 -19 -19 -20 -33 -20 -200 l0 -180 -207 0 c-242 0 -296
-10 -417 -72 -109 -57 -207 -155 -263 -263 -59 -114 -73 -179 -73 -334 l0
-131 40 0 40 0 0 -40 0 -40 -92 1 c-116 1 -165 16 -159 50 6 45 12 512 6 536
-7 28 -225 177 -292 200 -65 22 -152 12 -211 -24 -56 -34 -108 -100 -122 -154
-10 -37 -9 -490 1 -558 6 -34 -43 -49 -158 -50 l-93 -1 0 40 0 40 40 0 40 0 0
131 c0 155 -14 220 -73 334 -56 108 -154 206 -263 263 -121 62 -175 72 -416
72 l-208 0 0 180 c0 167 -1 181 -20 200 -13 13 -33 20 -60 20 -38 0 -53 -12
-342 -272z m2022 -784 c0 -68 -5 -106 -16 -131 -38 -78 -136 -113 -211 -74
-72 36 -87 69 -91 194 l-4 107 161 0 161 0 0 -96z m-288 -359 c42 -19 69 -25
128 -25 59 0 86 6 128 25 30 14 58 25 64 25 8 0 458 -190 458 -194 0 0 31
-111 70 -244 l69 -244 -62 -124 -62 -124 -157 0 -158 0 -85 42 c-47 23 -85 45
-85 49 0 3 65 49 144 102 l145 96 72 -24 c40 -14 74 -25 75 -25 1 0 12 30 25
68 12 37 24 72 26 79 3 7 -18 19 -51 29 l-56 18 0 120 c0 109 -2 122 -22 143
-20 22 -29 23 -137 23 l-116 -1 -130 -53 -130 -52 -160 53 c-154 51 -163 53
-269 53 -162 0 -156 9 -156 -239 0 -186 1 -196 22 -218 14 -15 33 -23 55 -23
18 0 124 36 235 81 112 45 224 89 249 99 l45 18 42 -84 42 -84 -203 -135 -202
-135 -197 0 -197 0 -60 88 -59 89 70 281 70 281 222 95 c121 52 226 96 233 96
6 0 35 -11 65 -25z m528 -404 c0 -64 9 -53 -102 -125 l-27 -18 -36 72 c-20 40
-35 73 -33 74 19 15 141 55 166 56 l32 0 0 -59z"/>
</g>
</svg>
